<?xml version="1.0" encoding="UTF-8" standalone="no"?>
<!-- Created with Inkscape (http://www.inkscape.org/) -->
<svg xmlns:dc="http://purl.org/dc/elements/1.1/" xmlns:cc="http://creativecommons.org/ns#" xmlns:rdf="http://www.w3.org/1999/02/22-rdf-syntax-ns#" xmlns:svg="http://www.w3.org/2000/svg" xmlns="http://www.w3.org/2000/svg" version="1.1" width="26.255791" height="32" id="svg3396">
  <defs id="defs3398"/>
  <metadata id="metadata3401">
    <rdf:RDF>
      <cc:Work rdf:about="">
        <dc:format>image/svg+xml</dc:format>
        <dc:type rdf:resource="http://purl.org/dc/dcmitype/StillImage"/>
        <dc:title/>
      </cc:Work>
    </rdf:RDF>
  </metadata>
  <g transform="translate(-291.90161,-677.34601)" id="layer1">
    <g id="text3029" style="font-size:32px;font-style:normal;font-variant:normal;font-weight:normal;font-stretch:normal;text-align:center;line-height:125%;letter-spacing:0px;word-spacing:0px;text-anchor:middle;fill:#000000;fill-opacity:1;stroke:none;font-family:FreeSans;-inkscape-font-specification:FreeSans">
      <path d="m 313.1574,688.54219 0,-4.89593 -13.47183,0 0,-4.76794 -2.78396,0 0,7.1999 13.47182,0 0,0.83199 c 0.016,0.92401 -0.024,1.764 -0.12,2.51997 -0.096,0.756 -0.34401,1.45199 -0.74399,2.08797 -0.35793,0.58904 -0.89007,1.12118 -1.59642,1.59643 -0.70637,0.47526 -1.3594,1.2634 -1.95909,2.36441 -0.5997,1.10103 -0.91851,2.88471 -0.95643,5.35104 l 0,2.01598 2.78397,0 0,-2.17597 c -0.012,-0.86866 0.036,-1.68331 0.14399,-2.44397 0.10799,-0.76065 0.34799,-1.43931 0.71999,-2.03598 0.27732,-0.46596 0.77154,-0.97756 1.48265,-1.53479 0.71109,-0.55722 1.38308,-1.30822 2.01598,-2.25301 0.63286,-0.94477 0.97063,-2.23146 1.01332,-3.8601 z" id="path2985"/>
    </g>
  </g>
</svg>