<?xml version="1.0" encoding="UTF-8" standalone="no"?>
<!-- Created with Inkscape (http://www.inkscape.org/) -->
<svg xmlns:dc="http://purl.org/dc/elements/1.1/" xmlns:cc="http://creativecommons.org/ns#" xmlns:rdf="http://www.w3.org/1999/02/22-rdf-syntax-ns#" xmlns:svg="http://www.w3.org/2000/svg" xmlns="http://www.w3.org/2000/svg" version="1.1" width="25.07299" height="32" id="svg3541">
  <defs id="defs3543"/>
  <metadata id="metadata3546">
    <rdf:RDF>
      <cc:Work rdf:about="">
        <dc:format>image/svg+xml</dc:format>
        <dc:type rdf:resource="http://purl.org/dc/dcmitype/StillImage"/>
        <dc:title/>
      </cc:Work>
    </rdf:RDF>
  </metadata>
  <g transform="translate(-378.89207,-594.96203)" id="layer1">
    <g id="text3049" style="font-size:32px;font-style:normal;font-variant:normal;font-weight:normal;font-stretch:normal;text-align:center;line-height:125%;letter-spacing:0px;word-spacing:0px;text-anchor:middle;fill:#000000;fill-opacity:1;stroke:none;font-family:FreeSans;-inkscape-font-specification:FreeSans">
      <path d="m 389.684,601.26228 -5.79193,0 0,6.71992 c 0.102,2.03865 0.80999,3.3373 2.12398,3.89595 1.31397,0.55866 2.62195,0.81733 3.92394,0.77599 l 1.27999,0.032 0,-2.43197 -1.08799,0 c -1.27799,0.018 -2.17798,-0.15399 -2.69996,-0.516 -0.522,-0.36198 -0.774,-1.02197 -0.75599,-1.97997 l 0,-4.06395 2.81596,0 c 1.86466,0.0403 3.27659,0.38283 4.2358,1.02754 0.95918,0.64475 1.60549,1.34993 1.93894,2.11553 0.33341,0.76564 0.4938,1.34992 0.48117,1.75287 l 0,4.54394 c 0.009,0.41304 -0.16554,1.00207 -0.52384,1.76709 -0.35833,0.76503 -1.01886,1.46784 -1.9816,2.10842 -0.96277,0.64058 -2.34625,0.98073 -4.15047,1.02043 l -5.59993,0 0,2.43197 5.79193,0 c 1.95769,-0.035 3.62443,-0.43792 5.00023,-1.20888 1.37577,-0.77095 2.42622,-1.70012 3.15137,-2.78752 0.72511,-1.08739 1.09053,-2.12322 1.09628,-3.10751 l 0,-4.99194 c 0.0221,-0.56116 -0.23192,-1.39789 -0.76206,-2.51019 -0.53019,-1.11227 -1.46924,-2.14099 -2.81715,-3.08618 -1.34795,-0.94516 -3.2375,-1.44767 -5.66867,-1.50754 z" id="path2985"/>
    </g>
  </g>
</svg>