<?xml version="1.0" encoding="UTF-8" standalone="no"?>
<!-- Created with Inkscape (http://www.inkscape.org/) -->
<svg xmlns:dc="http://purl.org/dc/elements/1.1/" xmlns:cc="http://creativecommons.org/ns#" xmlns:rdf="http://www.w3.org/1999/02/22-rdf-syntax-ns#" xmlns:svg="http://www.w3.org/2000/svg" xmlns="http://www.w3.org/2000/svg" version="1.1" width="26.255791" height="32" id="svg3483">
  <defs id="defs3485"/>
  <metadata id="metadata3488">
    <rdf:RDF>
      <cc:Work rdf:about="">
        <dc:format>image/svg+xml</dc:format>
        <dc:type rdf:resource="http://purl.org/dc/dcmitype/StillImage"/>
        <dc:title/>
      </cc:Work>
    </rdf:RDF>
  </metadata>
  <g transform="translate(-380.85703,-523.55451)" id="layer1">
    <g id="text3041" style="font-size:32px;font-style:normal;font-variant:normal;font-weight:normal;font-stretch:normal;text-align:center;line-height:125%;letter-spacing:0px;word-spacing:0px;text-anchor:middle;fill:#000000;fill-opacity:1;stroke:none;font-family:FreeSans;-inkscape-font-specification:FreeSans">
      <path d="m 393.98493,549.01251 c 2.18663,0.028 4.06927,-0.50799 5.64793,-1.60798 1.57863,-1.09998 2.40528,-2.93196 2.47997,-5.49593 l 0,-4.99193 c -0.0287,-2.25596 -0.75535,-3.99993 -2.17998,-5.23194 -1.42466,-1.23196 -3.3753,-1.85595 -5.85192,-1.87197 l -8.2239,0 0,12.09584 c 0.0447,1.97598 0.81133,3.63996 2.29998,4.99194 1.48864,1.35198 3.43128,2.05597 5.82792,2.11197 z m 5.34393,-11.90384 0,4.60794 c -0.0127,1.33665 -0.48334,2.4713 -1.41198,3.40395 -0.92867,0.93266 -2.23932,1.41932 -3.93195,1.45998 -1.81865,-0.0527 -3.1653,-0.56332 -4.03995,-1.53198 -0.87466,-0.96865 -1.30932,-2.0793 -1.30398,-3.33195 l 0,-9.47188 5.21593,0 c 1.79597,0.005 3.15595,0.41934 4.07995,1.24398 0.92397,0.82467 1.38797,2.03132 1.39198,3.61996 z" id="path2985"/>
    </g>
  </g>
</svg>