<?xml version="1.0" encoding="UTF-8" standalone="no"?>
<!-- Created with Inkscape (http://www.inkscape.org/) -->
<svg xmlns:dc="http://purl.org/dc/elements/1.1/" xmlns:cc="http://creativecommons.org/ns#" xmlns:rdf="http://www.w3.org/1999/02/22-rdf-syntax-ns#" xmlns:svg="http://www.w3.org/2000/svg" xmlns="http://www.w3.org/2000/svg" version="1.1" width="31.119728" height="32" id="svg3675">
  <defs id="defs3677"/>
  <metadata id="metadata3680">
    <rdf:RDF>
      <cc:Work rdf:about="">
        <dc:format>image/svg+xml</dc:format>
        <dc:type rdf:resource="http://purl.org/dc/dcmitype/StillImage"/>
        <dc:title/>
      </cc:Work>
    </rdf:RDF>
  </metadata>
  <g transform="translate(-53.011566,-500.67633)" id="layer1">
    <g id="text3065" style="font-size:32px;font-style:normal;font-variant:normal;font-weight:normal;font-stretch:normal;text-align:center;line-height:125%;letter-spacing:0px;word-spacing:0px;text-anchor:middle;fill:#000000;fill-opacity:1;stroke:none;font-family:FreeSans;-inkscape-font-specification:FreeSans">
      <path d="m 63.96349,516.57645 -3.16796,0 0,-9.59987 -2.783964,0 0,10.97586 c 0.0093,1.2073 0.388932,2.43 1.138949,3.6681 0.75001,1.23811 1.814687,2.28777 3.194032,3.14899 1.379333,0.86123 3.017631,1.33016 4.9149,1.4068 l 2.623966,0 c 1.877096,-0.0784 3.505913,-0.55446 4.886455,-1.42813 1.380506,-0.87367 2.449923,-1.93044 3.208255,-3.17033 0.758289,-1.23988 1.142679,-2.44836 1.153171,-3.62543 l 0,-10.97586 -2.783964,0 0,10.81586 c -0.03222,1.17155 -0.398039,2.20264 -1.097467,3.09329 -0.699467,0.89066 -1.539357,1.58754 -2.519672,2.09064 -0.980349,0.50311 -1.907941,0.75911 -2.782779,0.76799 l -2.783964,0 c -1.387992,-0.0493 -2.691974,-0.54266 -3.91195,-1.47998 -1.219991,-0.93732 -1.995979,-2.02263 -2.327969,-3.25596 l 3.199958,0 c 1.488638,-0.024 2.815286,-0.51198 3.979949,-1.46398 1.164638,-0.95198 1.779297,-2.22396 1.843976,-3.81595 l 0,-6.75191 -2.783964,0 0,6.62391 c -0.07334,1.198 -0.438672,1.99399 -1.095987,2.38797 -0.657334,0.39401 -1.358657,0.59 -2.103971,0.58799 z" id="path2985"/>
    </g>
  </g>
</svg>