<?xml version="1.0" encoding="UTF-8" standalone="no"?>
<!-- Created with Inkscape (http://www.inkscape.org/) -->
<svg xmlns:dc="http://purl.org/dc/elements/1.1/" xmlns:cc="http://creativecommons.org/ns#" xmlns:rdf="http://www.w3.org/1999/02/22-rdf-syntax-ns#" xmlns:svg="http://www.w3.org/2000/svg" xmlns="http://www.w3.org/2000/svg" version="1.1" width="29.199753" height="32" id="svg3704">
  <defs id="defs3706"/>
  <metadata id="metadata3709">
    <rdf:RDF>
      <cc:Work rdf:about="">
        <dc:format>image/svg+xml</dc:format>
        <dc:type rdf:resource="http://purl.org/dc/dcmitype/StillImage"/>
        <dc:title/>
      </cc:Work>
    </rdf:RDF>
  </metadata>
  <g transform="translate(-239.68584,-394.97506)" id="layer1">
    <g id="text3069" style="font-size:32px;font-style:normal;font-variant:normal;font-weight:normal;font-stretch:normal;text-align:center;line-height:125%;letter-spacing:0px;word-spacing:0px;text-anchor:middle;fill:#000000;fill-opacity:1;stroke:none;font-family:FreeSans;-inkscape-font-specification:FreeSans">
      <path d="m 261.10163,408.54522 0,11.90385 2.78397,0 0,-12.09585 c -0.0147,-2.33995 -0.71335,-4.10793 -2.09598,-5.30393 -1.38266,-1.19597 -3.3613,-1.79596 -5.93592,-1.79998 l -8.28789,0 0,2.43197 1.91997,0 0,9.69588 c 0.002,1.66331 -0.394,2.85663 -1.18798,3.57995 -0.794,0.72333 -1.99798,1.07666 -3.61196,1.05999 l 0,2.43197 c 2.54197,0.0173 4.44194,-0.54533 5.69993,-1.68798 1.25797,-1.14265 1.88597,-2.96929 1.88397,-5.47993 l 0,-9.59988 3.35996,0 c 1.69797,-0.009 3.02995,0.37735 3.99595,1.15999 0.96597,0.78267 1.45796,2.01732 1.47598,3.70395 z" id="path2985"/>
    </g>
  </g>
</svg>