<?xml version="1.0" encoding="UTF-8" standalone="no"?>
<!-- Created with Inkscape (http://www.inkscape.org/) -->
<svg xmlns:dc="http://purl.org/dc/elements/1.1/" xmlns:cc="http://creativecommons.org/ns#" xmlns:rdf="http://www.w3.org/1999/02/22-rdf-syntax-ns#" xmlns:svg="http://www.w3.org/2000/svg" xmlns="http://www.w3.org/2000/svg" version="1.1" width="26.28779" height="32" id="svg3288">
  <defs id="defs3290"/>
  <metadata id="metadata3293">
    <rdf:RDF>
      <cc:Work rdf:about="">
        <dc:format>image/svg+xml</dc:format>
        <dc:type rdf:resource="http://purl.org/dc/dcmitype/StillImage"/>
        <dc:title/>
      </cc:Work>
    </rdf:RDF>
  </metadata>
  <g transform="translate(-180.84103,-423.53347)" id="layer1">
    <g id="text3017" style="font-size:32px;font-style:normal;font-variant:normal;font-weight:normal;font-stretch:normal;text-align:center;line-height:125%;letter-spacing:0px;word-spacing:0px;text-anchor:middle;fill:#000000;fill-opacity:1;stroke:none;font-family:FreeSans;-inkscape-font-specification:FreeSans">
      <path d="m 194.00092,446.60151 c -1.66598,-0.0767 -2.97397,-0.63532 -3.92395,-1.67598 -0.94999,-1.04065 -1.43398,-2.1033 -1.45198,-3.18796 l 0,-11.90385 -2.78396,0 0,12.09585 c 0.068,1.97598 0.88398,3.63996 2.44797,4.99193 1.56397,1.35199 3.46794,2.05598 5.71192,2.11198 2.38263,-0.056 4.32127,-0.75999 5.81593,-2.11198 1.49463,-1.35197 2.26528,-3.01595 2.31197,-4.99193 l 0,-4.99194 c -0.0473,-2.19995 -0.81668,-3.92793 -2.30797,-5.18393 -1.49133,-1.25597 -3.42064,-1.89596 -5.78793,-1.91998 -0.68867,0.0167 -1.27132,0.0874 -1.74797,0.212 -0.47667,0.12469 -0.74734,0.20335 -0.81199,0.236 l 0,2.62397 c 0.0386,-0.0267 0.32132,-0.13332 0.84798,-0.32 0.52666,-0.18665 1.06531,-0.29331 1.61598,-0.32 1.6673,0.0407 2.98062,0.52735 3.93995,1.45999 0.95931,0.93266 1.44864,2.06732 1.46798,3.40395 l 0,4.60794 c -0.009,1.29466 -0.47134,2.41731 -1.38798,3.36796 -0.91667,0.95066 -2.23531,1.44932 -3.95595,1.49598 z" id="path2985"/>
    </g>
  </g>
</svg>